<?xml version="1.0" standalone="no"?>
<!DOCTYPE svg PUBLIC "-//W3C//DTD SVG 20010904//EN"
 "http://www.w3.org/TR/2001/REC-SVG-20010904/DTD/svg10.dtd">
<svg version="1.0" xmlns="http://www.w3.org/2000/svg"
 width="1280.000000pt" height="1280.000000pt" viewBox="0 0 1280.000000 1280.000000"
 preserveAspectRatio="xMidYMid meet">
<metadata>
Created by potrace 1.15, written by Peter Selinger 2001-2017
</metadata>
<g transform="translate(0.000000,1280.000000) scale(0.100000,-0.100000)"
fill="#000000" stroke="none">
<path d="M10834 9811 c-33 -22 -111 -88 -174 -148 -308 -289 -380 -347 -452
-358 -24 -3 -68 -14 -98 -25 -30 -10 -90 -26 -133 -35 -67 -15 -80 -16 -95 -3
-9 7 -33 21 -52 30 -19 9 -77 55 -129 102 -108 98 -220 162 -264 151 -15 -4
-43 -25 -61 -47 -28 -33 -39 -60 -63 -156 -19 -80 -27 -136 -24 -177 5 -103 4
-197 -4 -272 -11 -104 -31 -120 -166 -139 -292 -40 -306 -43 -411 -88 -136
-59 -200 -94 -311 -170 -55 -38 -114 -70 -147 -79 -140 -40 -385 -46 -496 -12
-27 8 -98 17 -159 20 -60 3 -132 10 -160 15 -116 21 -268 39 -375 45 -179 10
-445 33 -550 49 -52 8 -176 19 -275 26 -99 6 -220 16 -270 21 -49 6 -130 13
-180 15 -49 3 -148 13 -220 24 -128 20 -669 45 -745 35 -19 -3 -75 -9 -125
-16 -182 -22 -279 -47 -357 -93 -44 -25 -251 -116 -266 -116 -13 0 -86 -42
-123 -71 -57 -45 -200 -112 -487 -228 -109 -45 -294 -185 -347 -262 -56 -84
-96 -150 -132 -219 -21 -41 -51 -95 -65 -120 -14 -25 -31 -63 -38 -85 -7 -22
-19 -49 -26 -60 -6 -11 -17 -43 -23 -71 -5 -28 -19 -73 -29 -100 -11 -27 -31
-94 -45 -149 -15 -55 -35 -126 -46 -158 -23 -65 -39 -130 -71 -287 -33 -156
-66 -270 -100 -341 -16 -35 -30 -69 -30 -76 0 -17 -85 -141 -130 -188 -20 -22
-52 -62 -70 -90 -40 -61 -161 -178 -293 -286 -207 -168 -508 -266 -755 -245
-118 10 -166 38 -239 141 -47 65 -146 168 -203 210 -53 39 -147 70 -183 61
-105 -26 -136 -166 -70 -309 61 -128 243 -368 343 -449 158 -129 195 -149 319
-178 101 -23 525 6 565 39 6 5 40 14 76 21 70 12 170 49 170 62 0 4 5 8 10 8
6 0 33 11 62 25 28 14 57 25 63 25 6 0 20 8 31 19 11 10 38 24 59 31 48 16
105 49 105 61 0 5 10 14 23 19 108 46 377 257 495 389 74 82 216 291 234 344
6 18 17 41 24 52 6 11 17 38 24 60 7 22 16 42 19 45 10 7 85 167 105 225 48
136 63 209 83 403 5 51 18 67 29 37 4 -8 26 -20 50 -26 48 -12 63 -30 88 -105
9 -28 23 -60 31 -70 8 -10 15 -27 15 -36 0 -9 9 -32 19 -50 28 -46 34 -105 34
-320 1 -137 -3 -190 -12 -202 -7 -8 -10 -20 -7 -25 4 -5 2 -12 -3 -15 -5 -3
-12 -23 -16 -43 -3 -21 -15 -47 -26 -58 -58 -61 -89 -96 -89 -103 -1 -16 -98
-123 -153 -167 -111 -90 -118 -138 -55 -428 10 -49 25 -101 32 -115 18 -37 81
-223 101 -302 15 -60 40 -121 101 -257 13 -28 24 -57 24 -63 0 -14 28 -67 51
-95 8 -11 23 -41 33 -67 10 -26 28 -63 42 -83 13 -20 24 -42 24 -50 0 -7 6
-20 13 -27 7 -7 20 -25 30 -40 25 -40 113 -102 182 -127 33 -12 94 -38 136
-56 89 -39 110 -42 204 -31 52 7 79 16 105 36 19 15 56 35 81 44 68 25 89 52
106 143 21 102 20 149 -4 175 -31 35 -197 154 -253 183 -41 21 -69 27 -123 29
l-71 1 -37 69 c-20 38 -45 94 -55 125 -9 30 -25 69 -35 86 -17 29 -42 116 -35
123 6 5 106 -94 106 -105 0 -10 65 -87 158 -189 40 -43 138 -103 212 -129 46
-16 172 -33 308 -42 77 -4 87 -2 152 28 49 22 86 49 125 90 50 52 55 62 55
102 0 73 -19 149 -43 175 -65 71 -220 132 -334 132 -29 0 -75 5 -103 11 -44 9
-55 17 -89 62 -43 59 -111 183 -111 204 0 13 34 53 46 53 3 0 17 9 31 20 14
11 34 20 44 20 11 0 19 5 19 10 0 6 8 10 18 10 9 0 30 7 46 15 15 8 34 15 41
15 7 0 33 16 58 35 25 19 50 35 56 35 5 0 11 3 13 8 2 4 33 22 70 41 37 19 70
41 72 48 3 8 10 11 16 8 5 -3 10 -1 10 4 0 6 18 22 40 36 22 14 51 35 64 46
13 12 27 21 30 20 3 -1 15 8 26 19 11 11 27 20 35 20 19 0 60 26 92 57 12 13
26 23 30 23 4 0 19 16 32 35 13 19 32 35 42 35 11 0 19 4 19 9 0 5 16 16 35
25 19 9 35 22 35 28 0 5 7 7 16 4 9 -4 23 -1 31 6 8 7 54 13 106 15 101 3 193
10 247 19 19 3 46 5 60 5 14 1 30 5 37 11 7 5 21 7 32 3 12 -3 26 -3 33 2 7 4
40 8 73 10 108 4 154 10 171 23 13 11 17 11 24 1 6 -11 17 -11 56 2 54 17 96
27 134 32 14 2 49 9 79 15 30 5 57 8 59 5 3 -3 15 1 27 9 16 10 32 12 57 7 20
-5 43 -4 52 1 10 6 16 5 16 -2 0 -7 8 -9 19 -5 11 3 39 -5 66 -20 27 -14 55
-25 64 -25 10 0 21 -4 26 -9 6 -5 33 -14 60 -19 63 -13 91 -19 118 -28 12 -4
46 -8 77 -10 30 -1 55 -3 55 -4 0 -1 27 -3 60 -4 33 -2 71 -6 85 -10 33 -8 93
-15 210 -21 153 -9 190 -17 211 -45 11 -14 25 -57 32 -95 8 -39 18 -79 24 -90
16 -30 43 -155 43 -195 0 -19 11 -71 25 -114 14 -43 25 -84 25 -90 0 -9 53
-127 81 -178 5 -10 9 -29 9 -43 0 -14 4 -25 9 -25 5 0 12 -24 16 -52 4 -29 9
-57 10 -63 0 -5 4 -17 7 -25 4 -8 9 -41 12 -73 2 -32 10 -64 16 -72 10 -12 40
-107 90 -285 19 -68 74 -300 85 -360 9 -46 82 -277 101 -315 7 -16 17 -45 20
-62 9 -45 142 -178 187 -187 92 -19 145 -25 177 -20 19 2 58 6 85 8 57 4 79
12 117 39 14 11 31 16 37 13 5 -4 18 -2 28 3 10 5 43 19 73 30 51 20 61 29
109 101 48 72 53 84 46 116 -7 40 -48 83 -130 138 -97 65 -130 78 -192 74
l-56 -3 -14 58 c-7 32 -18 68 -25 80 -17 29 -26 655 -14 987 5 141 26 285 38
265 3 -6 22 -51 41 -101 43 -111 68 -162 113 -226 19 -27 39 -59 44 -72 4 -13
26 -52 48 -87 21 -36 48 -85 59 -109 11 -25 41 -78 67 -118 58 -91 83 -148
125 -282 41 -134 59 -168 109 -207 81 -62 383 -111 517 -83 199 41 348 177
305 280 -19 45 -112 127 -182 159 -69 32 -185 61 -246 61 -50 0 -100 17 -112
39 -17 33 -70 269 -70 314 0 54 -7 89 -70 352 -56 231 -57 237 -70 412 -10
145 7 335 35 390 8 15 15 34 15 41 0 7 20 52 45 100 25 47 45 94 45 104 0 10
4 18 9 18 5 0 12 9 16 19 3 11 18 37 32 58 14 21 44 73 66 116 28 56 61 100
116 154 72 72 140 153 196 234 32 45 45 122 45 271 0 106 9 164 28 178 12 9
42 59 42 70 0 6 14 34 31 63 29 50 30 50 24 17 -4 -19 -9 -46 -12 -60 -2 -14
11 18 29 71 42 117 82 182 127 202 l33 16 -5 -42 -5 -42 12 40 c11 36 16 40
49 43 20 2 45 -2 56 -7 13 -8 22 -8 26 -1 4 6 11 8 16 5 16 -10 52 -16 134
-21 71 -5 85 -3 125 19 60 32 81 74 79 155 -1 34 1 65 4 69 4 3 34 10 67 15
71 9 105 39 115 100 4 21 10 40 14 42 9 6 111 -61 171 -111 25 -21 39 -30 31
-20 -20 26 -131 112 -168 131 -39 19 -46 51 -10 41 56 -17 171 -78 262 -139
55 -36 87 -55 70 -41 -44 38 -163 119 -214 145 -31 15 -40 24 -31 30 8 5 -8
12 -44 20 -31 6 -56 15 -56 20 0 9 50 6 183 -11 44 -6 81 -8 83 -6 7 7 -112
27 -198 34 -48 4 -82 11 -90 20 -14 18 -5 26 56 49 60 22 48 30 -17 10 -76
-23 -81 -13 -73 125 6 116 -10 241 -49 373 -14 48 -63 132 -94 163 -8 9 -21
27 -28 41 -12 22 -11 30 12 66 24 37 24 38 3 14 -13 -16 -29 -28 -36 -28 -12
0 -28 45 -24 68 2 6 -2 12 -7 12 -30 0 -56 122 -42 195 6 27 20 100 31 160 12
61 35 144 52 185 60 150 71 189 58 205 -19 23 -43 18 -106 -24z"/>
<path d="M10974 9118 l-29 -33 33 29 c30 28 37 36 29 36 -2 0 -16 -15 -33 -32z"/>
<path d="M11408 8133 c7 -3 16 -2 19 1 4 3 -2 6 -13 5 -11 0 -14 -3 -6 -6z"/>
<path d="M11448 8123 c7 -3 16 -2 19 1 4 3 -2 6 -13 5 -11 0 -14 -3 -6 -6z"/>
<path d="M11500 7906 c0 -2 7 -7 16 -10 8 -3 12 -2 9 4 -6 10 -25 14 -25 6z"/>
<path d="M10402 7590 c0 -14 2 -19 5 -12 2 6 2 18 0 25 -3 6 -5 1 -5 -13z"/>
<path d="M10391 7514 c0 -11 3 -14 6 -6 3 7 2 16 -1 19 -3 4 -6 -2 -5 -13z"/>
</g>
</svg>
